<?xml version="1.0" standalone="no"?>
<!DOCTYPE svg PUBLIC "-//W3C//DTD SVG 20010904//EN"
 "http://www.w3.org/TR/2001/REC-SVG-20010904/DTD/svg10.dtd">
<svg version="1.0" xmlns="http://www.w3.org/2000/svg"
 width="151.000000pt" height="151.000000pt" viewBox="0 0 151.000000 151.000000"
 preserveAspectRatio="xMidYMid meet">
<metadata>
Created by potrace 1.14, written by Peter Selinger 2001-2017
</metadata>
<g transform="translate(0.000000,151.000000) scale(0.100000,-0.100000)"
fill="#000000" stroke="none">
<path d="M604 1276 c-28 -28 -34 -42 -34 -75 0 -39 6 -48 91 -136 51 -52 96
-95 101 -95 11 0 187 175 189 187 10 62 5 86 -26 119 -26 28 -40 34 -73 34
-24 0 -49 -7 -63 -19 -22 -18 -24 -18 -53 0 -49 30 -92 25 -132 -15z"/>
<path d="M453 1158 c-20 -32 -33 -62 -33 -76 0 -9 12 -59 26 -112 24 -89 29
-98 80 -146 57 -54 58 -55 48 -154 l-6 -56 84 1 83 0 -4 120 c-2 74 -8 130
-17 146 -7 14 -44 44 -82 67 l-68 41 -24 77 c-14 42 -31 83 -38 91 -17 16 -38
17 -49 1z"/>
<path d="M1023 1158 c-6 -7 -22 -49 -37 -94 -19 -57 -33 -84 -49 -92 -126 -64
-134 -76 -142 -232 l-6 -126 80 0 c48 0 82 5 83 11 4 30 4 71 -1 80 -19 36 -9
61 44 111 53 49 56 55 87 162 30 108 31 112 13 132 -10 11 -15 20 -11 20 4 0
2 9 -4 20 -12 22 -42 26 -57 8z"/>
<path d="M467 563 c-3 -5 -4 -42 -3 -83 l1 -75 34 -3 c51 -5 75 10 26 17 l-40
6 0 72 c0 66 -6 87 -18 66z"/>
<path d="M585 545 c-31 -30 -33 -82 -4 -119 46 -59 130 -14 124 66 -5 73 -72
102 -120 53z m87 -17 c16 -30 16 -47 0 -80 -23 -51 -92 -23 -92 37 0 56 67 87
92 43z"/>
<path d="M745 562 c-12 -8 -15 -162 -3 -162 4 0 9 6 9 13 1 6 3 19 4 27 1 8 3
20 4 27 3 23 41 0 49 -30 11 -41 30 -47 24 -7 -2 17 -8 33 -12 35 -5 3 -2 17
5 32 13 25 6 62 -13 64 -4 0 -18 2 -32 5 -14 2 -30 0 -35 -4z m53 -21 c22 -14
10 -46 -19 -49 -26 -3 -26 -4 -20 51 1 10 23 9 39 -2z"/>
<path d="M905 558 c-3 -7 -16 -46 -29 -85 -25 -73 -20 -98 9 -44 9 19 21 28
32 26 10 -2 21 -4 26 -4 4 -1 12 -13 17 -27 6 -14 14 -23 19 -19 6 3 -2 38
-17 82 -26 74 -47 99 -57 71z m34 -75 c1 -7 -8 -13 -19 -13 -23 0 -25 12 -8
43 11 21 11 21 19 2 4 -11 8 -26 8 -32z"/>
<path d="M259 358 c0 -7 -3 -47 -5 -88 -6 -84 12 -90 19 -7 6 63 12 67 26 15
23 -88 37 -88 67 2 l19 55 3 -62 c2 -42 7 -63 15 -63 9 0 12 19 9 68 -2 37 -5
73 -8 80 -8 26 -28 5 -49 -53 -24 -64 -25 -63 -49 13 -10 30 -24 52 -32 52 -8
0 -14 -6 -15 -12z"/>
<path d="M449 343 c-2 -16 -2 -53 1 -83 l5 -55 43 0 c23 -1 42 3 42 7 0 8 -22
12 -52 9 -14 -2 -18 5 -18 28 0 28 3 31 30 31 17 0 30 5 30 10 0 6 -13 10 -30
10 -25 0 -30 4 -30 25 0 21 5 25 29 25 17 0 33 5 36 10 4 6 -11 10 -38 10 -41
0 -45 -2 -48 -27z"/>
<path d="M569 360 c0 -5 -1 -39 -1 -75 0 -36 1 -69 1 -75 2 -18 82 -3 107 21
55 52 14 139 -66 139 -22 0 -40 -4 -41 -10z m94 -30 c13 -18 14 -29 8 -76 -1
-12 -44 -34 -66 -34 -12 0 -15 15 -15 65 l0 65 29 0 c19 0 35 -8 44 -20z"/>
<path d="M729 353 c-4 -89 -2 -143 6 -143 6 0 11 36 13 80 2 51 -1 80 -8 80
-5 0 -10 -8 -11 -17z"/>
<path d="M800 345 c-47 -50 -11 -146 52 -140 12 1 29 3 36 4 7 0 10 6 7 11 -3
6 -17 7 -31 4 -34 -9 -64 20 -64 60 1 45 21 66 64 66 22 0 35 4 31 10 -12 20
-71 11 -95 -15z"/>
<path d="M967 363 c-2 -4 -14 -39 -27 -76 -15 -46 -19 -72 -12 -79 7 -7 12 0
16 20 6 24 12 29 36 30 24 0 31 -4 36 -24 3 -13 12 -24 20 -24 10 0 7 19 -14
77 -25 71 -43 96 -55 76z m23 -87 c-19 -19 -32 9 -18 39 l12 27 8 -28 c4 -16
3 -33 -2 -38z"/>
<path d="M1072 287 l-1 -84 45 2 c44 2 74 14 38 16 -63 4 -59 -1 -59 73 0 40
-4 71 -11 73 -7 2 -11 -26 -12 -80z"/>
</g>
</svg>
