<svg width="101" height="101" fill="none" xmlns="http://www.w3.org/2000/svg"><path d="M65.098 74.694l-1.344-13.477a4.037 4.037 0 00-2.804-3.448L44.18 50.5H24.87L8.1 57.77a4.037 4.037 0 00-2.803 3.448L3.951 74.692c-.853 0-1.672.34-2.276.945a3.23 3.23 0 000 4.562 3.214 3.214 0 002.276.945l1.61 19.355h57.927l1.609-19.355c.853 0 1.672-.34 2.276-.945a3.23 3.23 0 000-4.562 3.214 3.214 0 00-2.276-.945z" fill="#006DF0"/><path d="M76.362 77.92c13.33 0 24.136-10.832 24.136-24.194 0-13.362-10.806-24.194-24.136-24.194S52.225 40.364 52.225 53.726c0 13.362 10.806 24.193 24.137 24.193z" fill="#8AE6DA"/><path d="M42.57 50.5l-8.045 16.129-8.045-16.13 1.609-12.902H40.96L42.57 50.5z" fill="#FFD4CF"/><path d="M39.352.5h-9.654c-7.11 0-12.873 5.777-12.873 12.903s5.763 12.903 12.873 12.903h9.654c7.11 0 12.873-5.777 12.873-12.903S46.46.5 39.352.5z" fill="#FAC850"/><path d="M40.961 37.597H28.088l-.961 7.71 1.236.774a11.646 11.646 0 0012.321.028l1.243-.77-.966-7.742z" fill="#FBB8B0"/><path d="M51.42 21.468h-4.023v-1.613h-3.76c-2.78 0-5.51-.721-7.929-2.093a16.11 16.11 0 01-5.87-5.738l-.14-.233-8.046 8.064v1.613h-4.023c-1.067 0-2.09.425-2.844 1.181a4.037 4.037 0 00-1.179 2.851v3.226c0 1.07.424 2.095 1.179 2.851a4.018 4.018 0 002.844 1.181h4.023s1.786 5.958 4.727 7.8l3.903 2.446a8.03 8.03 0 008.497.02l3.852-2.39c2.963-1.837 4.767-7.876 4.767-7.876h4.022c1.067 0 2.09-.425 2.845-1.18a4.037 4.037 0 001.178-2.852V25.5c0-1.07-.424-2.095-1.178-2.851a4.018 4.018 0 00-2.845-1.181z" fill="#FFD4CF"/><path d="M22.705 35.47c.82 1.852 2.102 4.15 3.74 5.164l3.852 2.208a8.032 8.032 0 008.496-.02l3.904-2.265c1.615-1.012 2.881-3.265 3.695-5.09l-11.841-5.935-11.846 5.937z" fill="#FFEFED"/><path d="M39.352 24.693h3.218v3.226h-3.218v-3.226zm-12.872 0h3.218v3.226H26.48v-3.226z" fill="#AE7069"/><path d="M16.825 100.5H5.56L3.952 81.145h12.873V100.5zm48.273-19.355l-1.61 19.355 1.61-19.355zM63.489 100.5H52.225V81.145h12.873l-1.61 19.355z" fill="#FFD4CF"/><path d="M76.341 37.597L61.88 44.06l1.206 7.671a24.8 24.8 0 009.761 15.546l3.508 2.59 3.342-2.436a24.793 24.793 0 009.89-15.637l1.217-7.734-14.462-6.464zm-.922 20.495a1.61 1.61 0 01-1.754.35 1.61 1.61 0 01-.522-.35l-4.827-4.839 2.275-2.28 3.69 3.698 8.517-8.537 2.275 2.28-9.654 9.678z" fill="#F1FCFB"/></svg>