<svg width="101" height="108" fill="none" xmlns="http://www.w3.org/2000/svg"><path d="M50.723 86.796c23.766 0 43.032-19.312 43.032-43.134S74.49.53 50.723.53C26.958.529 7.691 19.84 7.691 43.662s19.267 43.134 43.032 43.134z" fill="#006DF0"/><path d="M62.772 35.036v-6.901H38.674v6.901l-4.551 7.602a4.32 4.32 0 00-.613 2.22v29.43a2.15 2.15 0 002.151 2.157h30.123a2.15 2.15 0 001.521-.632 2.16 2.16 0 00.63-1.525v-29.43c0-.782-.212-1.55-.613-2.22l-4.55-7.602z" fill="#006DF0"/><path d="M65.784 16.057H35.66a2.154 2.154 0 00-2.151 2.157v7.764c0 1.191.963 2.157 2.151 2.157h30.123a2.154 2.154 0 002.151-2.157v-7.764a2.154 2.154 0 00-2.151-2.157zM33.51 45.388h34.425v24.155H33.51V45.388z" fill="#8AE6DA"/><path d="M45.128 50.564h-4.232a2.154 2.154 0 00-2.152 2.157v9.49c0 1.19.963 2.156 2.152 2.156h4.232a2.154 2.154 0 002.151-2.157v-9.49a2.154 2.154 0 00-2.151-2.156zm7.315 0h10.328v3.45H52.443v-3.45zm0 10.352h10.328v3.45H52.443v-3.45z" fill="#31CAD0"/><path d="M94.155 37.868l-4.923 37.654-13.66-1.794 3.607-27.59a10.156 10.156 0 013.872-6.731 10.109 10.109 0 017.485-2.015l3.62.475v.001z" fill="#FBB8B0"/><path d="M76.467 107.5l1.604-12.908 16.973-23.583 5.167-39.485.43-3.281a10.163 10.163 0 00-7.614 1.964 10.202 10.202 0 00-3.95 6.813L85.29 65.96l-.47-.612a6.873 6.873 0 00-9.362-1.482l-6.594 4.546a17.239 17.239 0 00-5.319 5.883 17.286 17.286 0 00-2.127 7.648l-.413 10.407L59.4 107.5h17.067z" fill="#FFD4CF"/><path d="M22.285 46.101l3.607 27.59-13.66 1.794L7.309 37.83l3.619-.475a10.105 10.105 0 017.485 2.015 10.143 10.143 0 013.872 6.73z" fill="#FBB8B0"/><path d="M25.05 107.5l-1.603-12.908L6.472 71.009 1.307 31.523l-.43-3.28a10.163 10.163 0 017.614 1.964 10.203 10.203 0 013.95 6.813l3.787 28.94.47-.612a6.872 6.872 0 019.362-1.483l6.594 4.546a17.24 17.24 0 015.319 5.883A17.285 17.285 0 0140.1 81.94l.413 10.407 1.603 15.152H25.05z" fill="#FFD4CF"/></svg>