<svg width="101" height="101" fill="none" xmlns="http://www.w3.org/2000/svg"><path d="M80.401 46.854a3.832 3.832 0 00-3.324 1.966l-4.354-1.505a22.616 22.616 0 00-6.322-12.423 22.526 22.526 0 00-12.394-6.337l-1.501-4.364a3.843 3.843 0 001.96-3.332c0-2.137-1.788-3.871-3.994-3.871-2.206 0-3.995 1.734-3.995 3.87a3.853 3.853 0 001.96 3.333l-1.5 4.364a22.377 22.377 0 00-9.698 4.028l-4.141-2.023a3.856 3.856 0 00-.965-3.746c-1.508-1.512-3.995-1.47-5.555.094-1.56 1.564-1.602 4.057-.094 5.57a3.835 3.835 0 003.737.966l2.018 4.15a22.491 22.491 0 00-4.014 9.694L23.82 48.82a3.814 3.814 0 00-3.303-1.965c-2.12 0-3.837 1.792-3.837 4.004 0 2.211 1.718 4.004 3.837 4.004a3.802 3.802 0 003.303-1.965l4.403 1.532a22.617 22.617 0 006.319 12.397A22.527 22.527 0 0046.91 73.16l1.529 4.414a3.812 3.812 0 00-1.961 3.31c-.001 2.124 1.788 3.846 3.994 3.846 2.206 0 3.995-1.722 3.995-3.846a3.824 3.824 0 00-1.961-3.311l1.529-4.414a22.38 22.38 0 009.648-4.008l4.196 2.039a3.826 3.826 0 00.949 3.731c1.498 1.502 3.978 1.452 5.538-.112 1.56-1.563 1.61-4.049.112-5.551a3.807 3.807 0 00-3.722-.951L68.72 64.1a22.487 22.487 0 004.003-9.697l4.353-1.505a3.843 3.843 0 003.324 1.966c2.133 0 3.862-1.793 3.862-4.005 0-2.211-1.73-4.005-3.862-4.005z" fill="#FAC850"/><path d="M56.908 63.762c3.555 0 6.436-2.166 6.436-4.839 0-2.672-2.881-4.839-6.436-4.839s-6.436 2.167-6.436 4.84c0 2.672 2.881 4.838 6.436 4.838zm-17.7-17.742a3.222 3.222 0 003.218-3.226 3.222 3.222 0 00-3.218-3.226 3.222 3.222 0 00-3.218 3.226 3.222 3.222 0 003.218 3.226zm-6.436 4.838h3.218v3.226h-3.218v-3.226zm14.481-17.741h3.219v3.226h-3.219v-3.226zm19.31 16.129h3.218v3.225h-3.219v-3.225z" fill="#FEF4DC"/><path d="M50.472.859C22.922.859.59 23.245.59 50.859s22.333 50 49.882 50c27.55 0 49.882-22.386 49.882-50s-22.333-50-49.882-50zm-43.446 50c0-8.436 2.445-16.69 7.036-23.759A43.475 43.475 0 0132.89 11.036 43.354 43.354 0 0157.412 7.87a43.405 43.405 0 0122.275 10.756L18.315 80.143A43.29 43.29 0 017.026 50.86zm74.167 30.793a43.408 43.408 0 01-28.541 12.7 43.388 43.388 0 01-29.669-9.764l61.14-61.283a43.625 43.625 0 019.74 29.738 43.605 43.605 0 01-12.67 28.609z" fill="#006DF0"/></svg>