<svg xmlns="http://www.w3.org/2000/svg" width="400" height="400"><g fill-rule="evenodd"><path d="M148.8 221.6v12.8h44.8v-25.6h-44.8v12.8m57.6 0v12.8h44.8v-25.6h-44.8v12.8m-46.358 25.833c-20.102 5.406-19.572 39.902.678 44.125 13.755 2.868 24.48-7.065 24.48-22.673 0-15.469-11.366-25.161-25.158-21.452m36.358.027c-.55.083-1.765.249-2.7.37l-1.7.219V291.2h6v-18.8l3.1.002c7.129.005 9.182 1.934 11.071 10.398a106.02 106.02 0 001.466 5.7l.797 2.7h3.226c2.922 0 3.197-.066 2.919-.7-.169-.385-1.134-3.85-2.145-7.7-2.015-7.673-3.216-10.229-5.458-11.615l-1.432-.885 1.986-1.134c7.899-4.511 7.586-16.221-.543-20.286-2.865-1.434-11.563-2.178-16.587-1.42M120 269.4v21.8h24.4V286H126v-38.4h-6v21.8m111.253-.403c-3.989 11.769-7.253 21.587-7.253 21.817 0 .267 1.127.377 3.089.303l3.089-.117 2.138-6.7 2.138-6.7h15.08l2.266 6.8 2.266 6.8h3.167c1.742 0 3.17-.135 3.174-.3.004-.165-3.281-9.973-7.3-21.796l-7.307-21.497-3.647-.003-3.647-.004-7.253 21.397m-60.589-15.962c10.923 5.23 10.97 27.088.07 32.535-11.085 5.539-21.664-6.567-18.555-21.235 2.145-10.12 10.404-15.169 18.485-11.3m37.38-.419c4.312 1.521 6.286 5.905 4.541 10.082-1.503 3.597-4.223 4.893-10.285 4.898l-4.3.004v-7.567c0-5.679.125-7.617.5-7.768 1.196-.483 7.878-.237 9.544.351m34.959 4.468c.402 1.494 1.69 5.471 2.864 8.838 1.173 3.367 2.133 6.292 2.133 6.5 0 .22-2.502.378-6 .378-3.3 0-6-.158-6-.352 0-.193.967-3.118 2.148-6.5 1.181-3.381 2.478-7.441 2.881-9.021.87-3.405 1.019-3.393 1.974.157M218.6 300.325c-20.891 6.189-20.86 38.593.041 43.508 6.174 1.452 17.703-.042 17.447-2.261-.295-2.549-.931-4.041-1.612-3.777-15.957 6.188-29.101-6.033-24.051-22.36 2.896-9.364 13.764-13.559 24.005-9.267.868.364 2.31-4.503 1.49-5.031-2.305-1.483-13.313-1.999-17.32-.812m-153.002.761c-.001.612-.629 10.024-1.396 20.914-.767 10.89-1.396 20.295-1.398 20.9-.004 1.094.01 1.1 2.764 1.1h2.768l.236-2.5c.235-2.487 1.126-17.415 1.678-28.1l.289-5.6.529 2c.291 1.1 2.913 9.162 5.826 17.917l5.295 15.916 2.376-.116 2.376-.117 3.738-10.2c2.055-5.61 4.881-13.571 6.278-17.691 2.813-8.291 3.029-8.382 3.039-1.275.004 3.433 1.035 23.056 1.432 27.266l.236 2.5h5.536v-1.927c0-1.06-.54-10.453-1.2-20.873-.66-10.42-1.2-19.46-1.2-20.088v-1.141l-3.843.115-3.844.114-3.761 10.2c-4.483 12.156-6.189 17.075-7.457 21.495l-.946 3.295-1.307-4.695c-.719-2.582-3.335-10.455-5.812-17.495l-4.504-12.8-3.863-.114-3.863-.115-.002 1.115M115.6 322v22h24.8v-5.2h-18.8v-15.2h16.8v-5.2h-16.8v-13.2h18V300h-24v22m34.8-21.728c-.77.079-1.805.234-2.3.344l-.9.199v21.369c0 15.111.129 21.448.44 21.641 1.072.662 15.314.385 18.56-.361 11.169-2.569 16.977-10.137 16.994-22.144.024-16.55-10.548-23.336-32.794-21.048m40 21.728v22h6v-44h-6v22m64.186-21.5c-.883 2.333-14.586 42.891-14.586 43.17 0 .2 1.381.311 3.068.247l3.068-.117 2.265-6.8 2.265-6.8 7.413-.109 7.413-.108 2.401 6.908 2.401 6.909 3.292.117c1.899.067 3.233-.04 3.153-.253-.076-.203-3.466-10.111-7.533-22.017L261.811 300h-3.518c-2.447 0-3.576.152-3.707.5M282.8 322v22h24.4v-5.2h-18.4V300h-6v22m-116.327-16.41c6.833 2.11 10.401 7.291 10.475 15.21.117 12.387-6.103 18.4-19.032 18.4H153.2v-16.971c0-15.826.047-16.983.7-17.153 2.161-.565 10.136-.239 12.573.514m96.081 14.71l1.79 5.3h-6.215c-4.806 0-6.172-.113-6.026-.5.606-1.605 5.113-15.596 5.506-17.093l.472-1.793 1.342 4.393a427.838 427.838 0 003.131 9.693" fill="#046cf3"/><path d="M171 49.393c-20.399 4.498-29.728 28.064-17.856 45.105 1.352 1.939 46.267 46.902 46.854 46.902.587 0 45.515-44.967 46.86-46.902 20.099-28.909-19.331-61.646-44.546-36.985l-2.287 2.238-2.513-2.409c-7.331-7.027-17.232-9.995-26.512-7.949M206.4 77.6V84h12.8v12.8h-12.8v12.8h-12.8V96.8h-12.8V84h12.8V71.2h12.8v6.4" fill="#d80424"/><path d="M120.889 86.988c-4.567 1.426-7.538 6.316-6.574 10.819.322 1.509.412 1.587 1.691 1.481 7.727-.642 9.189 1.421 16.008 22.571l5.306 16.459 1.57-1.137c2.075-1.504 5.311-2.23 7.479-1.68.897.228 1.631.354 1.631.282 0-.353-15.194-43.825-15.549-44.488-1.914-3.576-7.382-5.613-11.562-4.307m151.984.15c-2.043.727-4.502 2.659-5.336 4.192-.344.633-15.537 44.1-15.537 44.453 0 .072.734-.054 1.631-.282 2.182-.554 5.364.17 7.43 1.69l1.576 1.159 1.857-5.675a6697.764 6697.764 0 005.496-16.92c4.669-14.426 6.044-16.188 12.754-16.342l2.63-.061.324-1.559c1.457-7.014-5.895-13.123-12.825-10.655m-137.409 55.841c-2.017 5.254.846 8.479 13.844 15.596 10.384 5.685 11 5.917 12.292 4.625 2.438-2.438 1.759-3.056-11.223-10.229-11.881-6.565-12.879-7.228-13.915-9.247-.592-1.155-.786-1.299-.998-.745m128.037.779c-.921 1.931-2.025 2.664-13.878 9.213-12.982 7.173-13.661 7.791-11.223 10.229 1.292 1.292 1.908 1.06 12.292-4.625 12.431-6.807 14.122-8.44 14.102-13.621-.009-2.341-.522-2.814-1.293-1.196" fill="#fcac94"/><path d="M193.6 77.6V84h-12.8v12.8h12.8v12.8h12.8V96.8h12.8V84h-12.8V71.2h-12.8v6.4" fill="#f4f4f4"/><path d="M112.732 100.547c-3.886 2.051-5.67 6.407-4.57 11.152 2.626 11.322 14.442 53.93 15.369 55.418.633 1.017 5.768 5.895 12.584 11.954 16.12 14.331 15.417 13.287 15.776 23.429l.222 6.3H190.4v-18.716c0-29.869.151-29.608-25.901-44.829-8.416-4.917-15.976-9.097-16.8-9.288-3.539-.822-7.347.014-9.569 2.099l-.869.816-4.456-13.741a7668.678 7668.678 0 01-5.285-16.341c-2.522-7.908-8.802-11.413-14.788-8.253m167.265-.595c-3.996 1.301-5.777 3.397-7.519 8.848-.456 1.43-2.825 8.75-5.263 16.267l-4.434 13.666-1.995-1.343c-5.17-3.479-6.664-3.015-25.221 7.83-17.747 10.372-20.44 12.497-23.296 18.38-2.825 5.818-2.751 5.038-2.703 28.5l.034 16.7h38.287l.222-6.3c.359-10.142-.344-9.098 15.776-23.429 6.816-6.059 11.951-10.937 12.584-11.954.927-1.488 12.743-44.096 15.369-55.418 1.774-7.649-4.7-14.071-11.841-11.747m-143.616 43.201c.838 2.025 2.392 3.081 14.01 9.529 11.909 6.609 12.802 7.296 12.265 9.438-.835 3.325-1.89 3.043-14.456-3.867-10.341-5.685-11.77-6.85-12.817-10.452-1.039-3.575-.193-7.521.998-4.648m128.634.608c.839 5.595-1.302 7.942-13.215 14.492-12.566 6.91-13.621 7.192-14.456 3.867-.537-2.142.356-2.829 12.265-9.438 11.618-6.448 13.172-7.504 14.01-9.529.671-1.619 1.089-1.437 1.396.608" fill="#fcbcac"/><path d="M116.5 99.476c.385.1 1.015.1 1.4 0 .385-.101.07-.183-.7-.183s-1.085.082-.7.183m165.6 0c.385.1 1.015.1 1.4 0 .385-.101.07-.183-.7-.183s-1.085.082-.7.183m-138.195 36.007c.497.096 1.217.092 1.6-.008.382-.1-.025-.179-.905-.174-.88.004-1.193.086-.695.182m110.8 0c.497.096 1.217.092 1.6-.008.382-.1-.025-.179-.905-.174-.88.004-1.193.086-.695.182" fill="#fcac9c"/><path d="M134.901 145c.004.88.086 1.193.182.695.096-.497.092-1.217-.008-1.6-.1-.382-.179.025-.174.905m130 0c.004.88.086 1.193.182.695.096-.497.092-1.217-.008-1.6-.1-.382-.179.025-.174.905" fill="#fcb6a0"/></g></svg>