<svg width="39" height="29" fill="none" xmlns="http://www.w3.org/2000/svg"><path d="M9.04.424c2.45 0 4.474.775 6.074 2.325 1.6 1.55 2.4 3.575 2.4 6.075 0 1.15-.15 2.3-.45 3.45-.3 1.15-.975 2.875-2.025 5.175l-4.725 10.95H1.39l3.525-12.226c-1.4-.65-2.5-1.6-3.3-2.85-.75-1.3-1.125-2.8-1.125-4.5 0-2.5.8-4.524 2.4-6.074C4.49 1.199 6.54.424 9.04.424zm21.24 0c2.45 0 4.474.775 6.074 2.325 1.6 1.55 2.4 3.575 2.4 6.075 0 1.15-.15 2.3-.45 3.45-.3 1.15-.975 2.875-2.025 5.175l-4.725 10.95H22.63l3.525-12.226c-1.4-.65-2.5-1.6-3.3-2.85-.75-1.3-1.125-2.8-1.125-4.5 0-2.5.8-4.524 2.4-6.074 1.6-1.55 3.65-2.325 6.15-2.325z" fill="#232323"/></svg>