<svg width="21" height="21" fill="none" xmlns="http://www.w3.org/2000/svg"><g clip-path="url(#clip0)" fill="#006DF0"><path d="M6.086 4.838a.739.739 0 00-1.045 0A5.05 5.05 0 003.596 8.93a.739.739 0 101.47-.147 3.578 3.578 0 011.02-2.902.739.739 0 000-1.044z"/><path d="M9.012.286C4.353.286.563 4.076.563 8.734c0 4.659 3.79 8.449 8.449 8.449 4.658 0 8.448-3.79 8.448-8.449 0-4.658-3.79-8.448-8.448-8.448zm0 15.419a6.978 6.978 0 01-6.97-6.97 6.978 6.978 0 016.97-6.971 6.978 6.978 0 016.97 6.97 6.978 6.978 0 01-6.97 6.97z"/><path d="M20.347 19.025l-5.37-5.37a.739.739 0 10-1.045 1.045l5.37 5.37a.736.736 0 001.045 0 .739.739 0 000-1.045z"/></g><defs><clipPath id="clip0"><path fill="#fff" transform="translate(.563 .286)" d="M0 0h20v20H0z"/></clipPath></defs></svg>