<svg width="21" height="21" viewBox="0 0 21 21" fill="none" xmlns="http://www.w3.org/2000/svg">
<path d="M20.3552 1.20485C19.8675 0.717158 19.0853 0.717158 18.5976 1.20485L10.7209 9.08155L2.84425 1.20485C2.35656 0.717158 1.57441 0.717158 1.08672 1.20485C0.599024 1.69254 0.599024 2.47469 1.08672 2.96239L8.96341 10.8391L1.08672 18.7158C0.599024 19.2035 0.599024 19.9856 1.08672 20.4733C1.32596 20.7126 1.64802 20.8414 1.96088 20.8414C2.27374 20.8414 2.5958 20.7218 2.83505 20.4733L10.7117 12.5966L18.5884 20.4733C18.8277 20.7126 19.1498 20.8414 19.4626 20.8414C19.7847 20.8414 20.0975 20.7218 20.3368 20.4733C20.8245 19.9856 20.8245 19.2035 20.3368 18.7158L12.4785 10.8391L20.3552 2.96239C20.8429 2.47469 20.8429 1.69254 20.3552 1.20485Z" fill="#F6F7F8"/>
</svg>
