<svg width="101" height="108" viewBox="0 0 101 108" fill="none" xmlns="http://www.w3.org/2000/svg">
<path d="M50.7233 86.7961C74.4892 86.7961 93.7553 67.4845 93.7553 43.6625C93.7553 19.8404 74.4892 0.528809 50.7233 0.528809C26.9575 0.528809 7.69141 19.8404 7.69141 43.6625C7.69141 67.4845 26.9575 86.7961 50.7233 86.7961Z" fill="#006DF0"/>
<path d="M62.7715 35.0362V28.1348H38.6736V35.0362L34.123 42.6385C33.7217 43.3088 33.5098 44.0759 33.5098 44.8577V74.2878C33.5098 74.8598 33.7365 75.4083 34.14 75.8128C34.5435 76.2172 35.0907 76.4445 35.6614 76.4445H65.7837C66.3543 76.4445 66.9016 76.2172 67.3051 75.8128C67.7086 75.4083 67.9353 74.8598 67.9353 74.2878V44.8577C67.9352 44.0759 67.7233 43.3089 67.3221 42.6385L62.7715 35.0362Z" fill="#006DF0"/>
<path d="M65.7837 16.0571H35.6614C34.4731 16.0571 33.5098 17.0227 33.5098 18.2138V25.9779C33.5098 27.169 34.4731 28.1346 35.6614 28.1346H65.7837C66.972 28.1346 67.9353 27.169 67.9353 25.9779V18.2138C67.9353 17.0227 66.972 16.0571 65.7837 16.0571Z" fill="#8AE6DA"/>
<path d="M33.5098 45.3882H67.9353V69.543H33.5098V45.3882Z" fill="#8AE6DA"/>
<path d="M45.1279 50.564H40.8957C39.7074 50.564 38.7441 51.5295 38.7441 52.7206V62.2101C38.7441 63.4012 39.7074 64.3667 40.8957 64.3667H45.1279C46.3162 64.3667 47.2795 63.4012 47.2795 62.2101V52.7206C47.2795 51.5295 46.3162 50.564 45.1279 50.564Z" fill="#31CAD0"/>
<path d="M52.4434 50.564H62.771V54.0146H52.4434V50.564Z" fill="#31CAD0"/>
<path d="M52.4434 60.916H62.771V64.3667H52.4434V60.916Z" fill="#31CAD0"/>
<path d="M94.1552 37.868L89.2323 75.522L75.5723 73.7276L79.1794 46.1373C79.5284 43.4681 80.9209 41.0471 83.0507 39.407C85.1805 37.7668 87.873 37.042 90.536 37.3918L94.1553 37.8672L94.1552 37.868Z" fill="#FBB8B0"/>
<path d="M76.4671 107.5L78.0707 94.5919L95.0444 71.0094L100.211 31.5238L100.641 28.2428C99.3055 28.0483 97.9446 28.1218 96.6375 28.459C95.3304 28.7962 94.1033 29.3904 93.0273 30.2071C91.9513 31.0238 91.048 32.0467 90.3698 33.2164C89.6916 34.386 89.252 35.6791 89.0767 37.0205L85.2899 65.9608L84.8206 65.3483C83.7465 63.9465 82.1766 63.0113 80.4348 62.7355C78.693 62.4597 76.912 62.8643 75.459 63.8658L68.8638 68.4119C66.6587 69.9318 64.8376 71.9462 63.545 74.295C62.2525 76.6438 61.5241 79.2624 61.4177 81.9427L61.0051 92.3504L59.4004 107.5H76.4671Z" fill="#FFD4CF"/>
<path d="M22.2846 46.1011L25.8916 73.6906L12.2316 75.4849L7.3087 37.831L10.928 37.3556C12.2465 37.1824 13.5862 37.2712 14.8706 37.6169C16.1549 37.9627 17.3587 38.5587 18.4133 39.3708C19.4678 40.1829 20.3525 41.1952 21.0167 42.35C21.681 43.5048 22.1118 44.7794 22.2846 46.1011Z" fill="#FBB8B0"/>
<path d="M25.0499 107.5L23.4472 94.5918L6.4724 71.0093L1.30727 31.5228L0.876953 28.2423C2.21259 28.0478 3.57347 28.1213 4.88053 28.4585C6.18758 28.7958 7.41475 29.39 8.49073 30.2067C9.56671 31.0234 10.47 32.0463 11.1482 33.2159C11.8264 34.3855 12.266 35.6786 12.4414 37.02L16.2282 65.9603L16.6974 65.3478C17.7716 63.946 19.3414 63.0108 21.0832 62.735C22.825 62.4592 24.606 62.8637 26.059 63.8653L32.6543 68.4114C34.8592 69.9311 36.6803 71.9453 37.9729 74.2938C39.2654 76.6423 39.994 79.2606 40.1006 81.9407L40.5135 92.3484L42.1166 107.5H25.0499Z" fill="#FFD4CF"/>
</svg>
