<svg width="101" height="101" viewBox="0 0 101 101" fill="none" xmlns="http://www.w3.org/2000/svg">
<path d="M65.0979 74.6935L63.7535 61.2169C63.675 60.4301 63.3674 59.6837 62.869 59.0708C62.3706 58.4578 61.7034 58.0052 60.9504 57.7694L44.1796 50.5H24.8704L8.09954 57.7694C7.34653 58.0052 6.67933 58.4578 6.18094 59.0708C5.68255 59.6837 5.37498 60.4301 5.29649 61.2169L3.95209 74.6935C3.09857 74.6935 2.28 75.0334 1.67648 75.6384C1.07295 76.2433 0.733887 77.0638 0.733887 77.9194C0.733887 78.7749 1.07295 79.5954 1.67648 80.2003C2.28 80.8053 3.09857 81.1452 3.95209 81.1452L5.56118 100.5H63.4888L65.0979 81.1452C65.9514 81.1452 66.7699 80.8053 67.3735 80.2003C67.977 79.5954 68.3161 78.7749 68.3161 77.9194C68.3161 77.0638 67.977 76.2433 67.3735 75.6384C66.7699 75.0334 65.9514 74.6935 65.0979 74.6935Z" fill="#006DF0"/>
<path d="M76.3616 77.9193C89.6918 77.9193 100.498 67.0875 100.498 53.7258C100.498 40.364 89.6918 29.5322 76.3616 29.5322C63.0314 29.5322 52.2251 40.364 52.2251 53.7258C52.2251 67.0875 63.0314 77.9193 76.3616 77.9193Z" fill="#8AE6DA"/>
<path d="M42.5705 50.4999L34.525 66.6289L26.4795 50.4999L28.0886 37.5967H40.9614L42.5705 50.4999Z" fill="#FFD4CF"/>
<path d="M39.3521 0.5H29.6975C22.5881 0.5 16.8247 6.27697 16.8247 13.4032C16.8247 20.5295 22.5881 26.3065 29.6975 26.3065H39.3521C46.4615 26.3065 52.2249 20.5295 52.2249 13.4032C52.2249 6.27697 46.4615 0.5 39.3521 0.5Z" fill="#FAC850"/>
<path d="M40.9612 37.5967H28.0884L27.127 45.3062L28.3635 46.0808C30.2099 47.2375 32.3424 47.8533 34.5197 47.8583C36.697 47.8634 38.8323 47.2576 40.684 46.1094L41.9266 45.3386L40.9612 37.5967Z" fill="#FBB8B0"/>
<path d="M51.4203 21.4679H47.3975V19.855H43.6363C40.8576 19.8551 38.1262 19.1338 35.7082 17.7616C33.2902 16.3893 31.2679 14.4127 29.8382 12.0244L29.6974 11.7905L21.6519 19.855V21.4679H17.6292C16.5623 21.4679 15.5391 21.8928 14.7847 22.649C14.0303 23.4052 13.6064 24.4308 13.6064 25.5002V28.726C13.6064 29.7954 14.0303 30.8211 14.7847 31.5772C15.5391 32.3334 16.5623 32.7583 17.6292 32.7583H21.6519C21.6519 32.7583 23.4382 38.7161 26.3787 40.5583L30.2823 43.0038C31.5557 43.8017 33.0263 44.2264 34.5279 44.2299C36.0295 44.2335 37.5021 43.8158 38.7792 43.024L42.6306 40.6347C45.5943 38.7974 47.3975 32.7583 47.3975 32.7583H51.4203C52.4872 32.7583 53.5104 32.3334 54.2648 31.5772C55.0192 30.8211 55.443 29.7954 55.443 28.726V25.5002C55.443 24.4308 55.0192 23.4052 54.2648 22.649C53.5104 21.8928 52.4872 21.4679 51.4203 21.4679Z" fill="#FFD4CF"/>
<path d="M22.7046 35.4693C23.5252 37.3225 24.8071 39.6193 26.4441 40.6344L30.2965 42.8421C31.5736 43.6338 33.0462 44.0516 34.5477 44.048C36.0493 44.0444 37.5199 43.6197 38.7932 42.8219L42.6968 40.5574C44.3124 39.5453 45.5783 37.2923 46.3921 35.4663L34.5508 29.5322L22.7046 35.4693Z" fill="#FFEFED"/>
<path d="M39.3521 24.6934H42.5702V27.9192H39.3521V24.6934Z" fill="#AE7069"/>
<path d="M26.4795 24.6934H29.6977V27.9192H26.4795V24.6934Z" fill="#AE7069"/>
<path d="M16.8249 100.5H5.56125L3.95215 81.145H16.8249V100.5Z" fill="#FFD4CF"/>
<path d="M65.0979 81.145L63.4888 100.5L65.0979 81.145Z" fill="#FFD4CF"/>
<path d="M63.4888 100.5H52.2251V81.145H65.0979L63.4888 100.5Z" fill="#FFD4CF"/>
<path d="M76.3412 37.5967L61.8794 44.0606L63.0848 51.732C64.233 57.9755 67.7268 63.5396 72.8462 67.2777L76.3542 69.8674L79.6963 67.4322C84.8838 63.6958 88.4276 58.0922 89.5851 51.7953L90.803 44.0606L76.3412 37.5967ZM75.4186 58.092C75.2691 58.2418 75.0917 58.3606 74.8965 58.4417C74.7013 58.5228 74.492 58.5645 74.2807 58.5645C74.0694 58.5645 73.8602 58.5228 73.6649 58.4417C73.4697 58.3606 73.2923 58.2418 73.1429 58.092L68.3156 53.2533L70.5913 50.9723L74.2807 54.6707L82.7977 46.1336L85.0734 48.4146L75.4186 58.092Z" fill="#F1FCFB"/>
</svg>
