<svg width="101" height="101" viewBox="0 0 101 101" fill="none" xmlns="http://www.w3.org/2000/svg">
<path d="M80.401 46.8543C79.723 46.8584 79.0583 47.0424 78.4743 47.3876C77.8904 47.7329 77.4081 48.2271 77.0766 48.8198L72.7232 47.3152C71.9752 42.6095 69.7624 38.2613 66.4009 34.8919C63.0395 31.5225 58.7015 29.3045 54.0069 28.5547L52.5059 24.191C53.0972 23.8587 53.5902 23.3753 53.9347 22.79C54.2791 22.2047 54.4627 21.5383 54.4667 20.8588C54.4667 18.7217 52.678 16.9878 50.4717 16.9878C48.2655 16.9878 46.4768 18.7217 46.4768 20.8588C46.4808 21.5383 46.6644 22.2047 47.0088 22.79C47.3533 23.3753 47.8463 23.8587 48.4376 24.191L46.9366 28.5547C43.4315 29.1087 40.1078 30.4892 37.2391 32.5826L33.0977 30.5602C33.2815 29.906 33.289 29.2148 33.1197 28.5567C32.9503 27.8987 32.61 27.2974 32.1334 26.814C30.6249 25.3019 28.1381 25.3446 26.5778 26.9084C25.0176 28.4721 24.9756 30.9654 26.4837 32.4771C26.9659 32.9548 27.5658 33.2959 28.2223 33.4657C28.8788 33.6355 29.5684 33.6279 30.221 33.4436L32.2386 37.5948C30.1557 40.4628 28.7802 43.7845 28.2245 47.288L23.8208 48.8203C23.4934 48.2287 23.015 47.7349 22.4346 47.3895C21.8542 47.0442 21.1927 46.8596 20.5178 46.8547C18.3986 46.8543 16.6807 48.6473 16.6807 50.8588C16.6807 53.0703 18.3986 54.8632 20.5178 54.8632C21.1927 54.8583 21.8542 54.6738 22.4346 54.3284C23.015 53.983 23.4934 53.4893 23.8208 52.8977L28.2245 54.4299C28.9767 59.1257 31.1877 63.4638 34.5426 66.8267C37.8976 70.1896 42.2256 72.4058 46.9102 73.1598L48.4389 77.5739C47.8486 77.9021 47.3561 78.3816 47.0115 78.9634C46.667 79.5451 46.4828 80.2082 46.478 80.8848C46.4768 83.0078 48.2655 84.7297 50.4717 84.7297C52.678 84.7297 54.4667 83.0078 54.4667 80.8836C54.4619 80.207 54.2777 79.5439 53.9332 78.9622C53.5886 78.3804 53.0961 77.9009 52.5059 77.5727L54.0345 73.1586C57.5205 72.6032 60.8262 71.2301 63.6825 69.1513L67.8788 71.19C67.693 71.8404 67.683 72.5287 67.8498 73.1843C68.0165 73.8398 68.3541 74.4392 68.8279 74.9211C70.3264 76.4231 72.8058 76.3727 74.3661 74.8092C75.9263 73.2457 75.9752 70.76 74.4779 69.258C73.9971 68.783 73.3991 68.4447 72.7451 68.2775C72.091 68.1103 71.4044 68.1203 70.7555 68.3065L68.7209 64.1003C70.8005 61.23 72.1722 57.9067 72.7236 54.4027L77.077 52.8981C77.4085 53.4909 77.8908 53.985 78.4747 54.3303C79.0587 54.6755 79.7234 54.8596 80.4014 54.8636C82.5335 54.8636 84.2632 53.0707 84.2632 50.8592C84.2632 48.6477 82.5331 46.8543 80.401 46.8543Z" fill="#FAC850"/>
<path d="M56.9081 63.7619C60.4628 63.7619 63.3445 61.5955 63.3445 58.9232C63.3445 56.2508 60.4628 54.0845 56.9081 54.0845C53.3534 54.0845 50.4717 56.2508 50.4717 58.9232C50.4717 61.5955 53.3534 63.7619 56.9081 63.7619Z" fill="#FEF4DC"/>
<path d="M39.2079 46.02C40.9853 46.02 42.4261 44.5757 42.4261 42.7942C42.4261 41.0126 40.9853 39.5684 39.2079 39.5684C37.4306 39.5684 35.9897 41.0126 35.9897 42.7942C35.9897 44.5757 37.4306 46.02 39.2079 46.02Z" fill="#FEF4DC"/>
<path d="M32.7715 50.8584H35.9897V54.0842H32.7715V50.8584Z" fill="#FEF4DC"/>
<path d="M47.2534 33.1167H50.4716V36.3425H47.2534V33.1167Z" fill="#FEF4DC"/>
<path d="M66.5625 49.2456H69.7807V52.4714H66.5625V49.2456Z" fill="#FEF4DC"/>
<path d="M50.4719 0.858887C22.9227 0.858887 0.589844 23.2446 0.589844 50.8589C0.589844 78.4732 22.9227 100.859 50.4719 100.859C78.0211 100.859 100.354 78.4732 100.354 50.8589C100.354 23.2446 78.0211 0.858887 50.4719 0.858887ZM7.02624 50.8589C7.02646 42.4234 9.47075 34.1696 14.0621 27.1002C18.6535 20.0308 25.1943 14.4501 32.8899 11.0362C40.5855 7.62234 49.1046 6.5222 57.4122 7.86945C65.7197 9.2167 73.4581 12.9534 79.6871 18.6254L18.3147 80.1432C11.0241 72.1444 6.99544 61.6933 7.02624 50.8589ZM81.1926 81.6522C73.5775 89.2839 63.4067 93.8096 52.6519 94.352C41.8971 94.8944 31.3244 91.4148 22.9835 84.5879L84.1222 23.3049C90.9331 31.6654 94.4045 42.2631 93.8635 53.0433C93.3224 63.8236 88.8073 74.0185 81.1936 81.6516L81.1926 81.6522Z" fill="#006DF0"/>
</svg>
