<svg id="svg" version="1.1" xmlns="http://www.w3.org/2000/svg" xmlns:xlink="http://www.w3.org/1999/xlink" width="400" height="400" viewBox="0, 0, 400,400"><g id="svgg"><path id="path0" d="M148.800 221.600 L 148.800 234.400 171.200 234.400 L 193.600 234.400 193.600 221.600 L 193.600 208.800 171.200 208.800 L 148.800 208.800 148.800 221.600 M206.400 221.600 L 206.400 234.400 228.800 234.400 L 251.200 234.400 251.200 221.600 L 251.200 208.800 228.800 208.800 L 206.400 208.800 206.400 221.600 M160.042 247.433 C 139.940 252.839,140.470 287.335,160.720 291.558 C 174.475 294.426,185.200 284.493,185.200 268.885 C 185.200 253.416,173.834 243.724,160.042 247.433 M196.400 247.460 C 195.850 247.543,194.635 247.709,193.700 247.830 L 192.000 248.049 192.000 269.625 L 192.000 291.200 195.000 291.200 L 198.000 291.200 198.000 281.800 L 198.000 272.400 201.100 272.402 C 208.229 272.407,210.282 274.336,212.171 282.800 C 212.539 284.450,213.199 287.015,213.637 288.500 L 214.434 291.200 217.660 291.200 C 220.582 291.200,220.857 291.134,220.579 290.500 C 220.410 290.115,219.445 286.650,218.434 282.800 C 216.419 275.127,215.218 272.571,212.976 271.185 L 211.544 270.300 213.530 269.166 C 221.429 264.655,221.116 252.945,212.987 248.880 C 210.122 247.446,201.424 246.702,196.400 247.460 M120.000 269.400 L 120.000 291.200 132.200 291.200 L 144.400 291.200 144.400 288.600 L 144.400 286.000 135.200 286.000 L 126.000 286.000 126.000 266.800 L 126.000 247.600 123.000 247.600 L 120.000 247.600 120.000 269.400 M231.253 268.997 C 227.264 280.766,224.000 290.584,224.000 290.814 C 224.000 291.081,225.127 291.191,227.089 291.117 L 230.178 291.000 232.316 284.300 L 234.454 277.600 241.994 277.600 L 249.534 277.600 251.800 284.400 L 254.066 291.200 257.233 291.200 C 258.975 291.200,260.403 291.065,260.407 290.900 C 260.411 290.735,257.126 280.927,253.107 269.104 L 245.800 247.607 242.153 247.604 L 238.506 247.600 231.253 268.997 M170.664 253.035 C 181.587 258.265,181.634 280.123,170.734 285.570 C 159.649 291.109,149.070 279.003,152.179 264.335 C 154.324 254.215,162.583 249.166,170.664 253.035 M208.044 252.616 C 212.356 254.137,214.330 258.521,212.585 262.698 C 211.082 266.295,208.362 267.591,202.300 267.596 L 198.000 267.600 198.000 260.033 C 198.000 254.354,198.125 252.416,198.500 252.265 C 199.696 251.782,206.378 252.028,208.044 252.616 M243.003 257.084 C 243.405 258.578,244.693 262.555,245.867 265.922 C 247.040 269.289,248.000 272.214,248.000 272.422 C 248.000 272.642,245.498 272.800,242.000 272.800 C 238.700 272.800,236.000 272.642,236.000 272.448 C 236.000 272.255,236.967 269.330,238.148 265.948 C 239.329 262.567,240.626 258.507,241.029 256.927 C 241.899 253.522,242.048 253.534,243.003 257.084 M218.600 300.325 C 197.709 306.514,197.740 338.918,218.641 343.833 C 224.815 345.285,236.344 343.791,236.088 341.572 C 235.793 339.023,235.157 337.531,234.476 337.795 C 218.519 343.983,205.375 331.762,210.425 315.435 C 213.321 306.071,224.189 301.876,234.430 306.168 C 235.298 306.532,236.740 301.665,235.920 301.137 C 233.615 299.654,222.607 299.138,218.600 300.325 M65.598 301.086 C 65.597 301.698,64.969 311.110,64.202 322.000 C 63.435 332.890,62.806 342.295,62.804 342.900 C 62.800 343.994,62.814 344.000,65.568 344.000 L 68.336 344.000 68.572 341.500 C 68.807 339.013,69.698 324.085,70.250 313.400 L 70.539 307.800 71.068 309.800 C 71.359 310.900,73.981 318.962,76.894 327.717 L 82.189 343.633 84.565 343.517 L 86.941 343.400 90.679 333.200 C 92.734 327.590,95.560 319.629,96.957 315.509 C 99.770 307.218,99.986 307.127,99.996 314.234 C 100.000 317.667,101.031 337.290,101.428 341.500 L 101.664 344.000 104.432 344.000 L 107.200 344.000 107.200 342.073 C 107.200 341.013,106.660 331.620,106.000 321.200 C 105.340 310.780,104.800 301.740,104.800 301.112 L 104.800 299.971 100.957 300.086 L 97.113 300.200 93.352 310.400 C 88.869 322.556,87.163 327.475,85.895 331.895 L 84.949 335.190 83.642 330.495 C 82.923 327.913,80.307 320.040,77.830 313.000 L 73.326 300.200 69.463 300.086 L 65.600 299.971 65.598 301.086 M115.600 322.000 L 115.600 344.000 128.000 344.000 L 140.400 344.000 140.400 341.400 L 140.400 338.800 131.000 338.800 L 121.600 338.800 121.600 331.200 L 121.600 323.600 130.000 323.600 L 138.400 323.600 138.400 321.000 L 138.400 318.400 130.000 318.400 L 121.600 318.400 121.600 311.800 L 121.600 305.200 130.600 305.200 L 139.600 305.200 139.600 302.600 L 139.600 300.000 127.600 300.000 L 115.600 300.000 115.600 322.000 M150.400 300.272 C 149.630 300.351,148.595 300.506,148.100 300.616 L 147.200 300.815 147.200 322.184 C 147.200 337.295,147.329 343.632,147.640 343.825 C 148.712 344.487,162.954 344.210,166.200 343.464 C 177.369 340.895,183.177 333.327,183.194 321.320 C 183.218 304.770,172.646 297.984,150.400 300.272 M190.400 322.000 L 190.400 344.000 193.400 344.000 L 196.400 344.000 196.400 322.000 L 196.400 300.000 193.400 300.000 L 190.400 300.000 190.400 322.000 M254.586 300.500 C 253.703 302.833,240.000 343.391,240.000 343.670 C 240.000 343.870,241.381 343.981,243.068 343.917 L 246.136 343.800 248.401 337.000 L 250.666 330.200 258.079 330.091 L 265.492 329.983 267.893 336.891 L 270.294 343.800 273.586 343.917 C 275.485 343.984,276.819 343.877,276.739 343.664 C 276.663 343.461,273.273 333.553,269.206 321.647 L 261.811 300.000 258.293 300.000 C 255.846 300.000,254.717 300.152,254.586 300.500 M282.800 322.000 L 282.800 344.000 295.000 344.000 L 307.200 344.000 307.200 341.400 L 307.200 338.800 298.000 338.800 L 288.800 338.800 288.800 319.400 L 288.800 300.000 285.800 300.000 L 282.800 300.000 282.800 322.000 M166.473 305.590 C 173.306 307.700,176.874 312.881,176.948 320.800 C 177.065 333.187,170.845 339.200,157.916 339.200 L 153.200 339.200 153.200 322.229 C 153.200 306.403,153.247 305.246,153.900 305.076 C 156.061 304.511,164.036 304.837,166.473 305.590 M262.554 320.300 L 264.344 325.600 258.129 325.600 C 253.323 325.600,251.957 325.487,252.103 325.100 C 252.709 323.495,257.216 309.504,257.609 308.007 L 258.081 306.214 259.423 310.607 C 260.161 313.023,261.570 317.385,262.554 320.300 " stroke="none" fill="#046cf3" fill-rule="evenodd"></path><path id="path1" d="M171.000 49.393 C 150.601 53.891,141.272 77.457,153.144 94.498 C 154.496 96.437,199.411 141.400,199.998 141.400 C 200.585 141.400,245.513 96.433,246.858 94.498 C 266.957 65.589,227.527 32.852,202.312 57.513 L 200.025 59.751 197.512 57.342 C 190.181 50.315,180.280 47.347,171.000 49.393 M206.400 77.600 L 206.400 84.000 212.800 84.000 L 219.200 84.000 219.200 90.400 L 219.200 96.800 212.800 96.800 L 206.400 96.800 206.400 103.200 L 206.400 109.600 200.000 109.600 L 193.600 109.600 193.600 103.200 L 193.600 96.800 187.200 96.800 L 180.800 96.800 180.800 90.400 L 180.800 84.000 187.200 84.000 L 193.600 84.000 193.600 77.600 L 193.600 71.200 200.000 71.200 L 206.400 71.200 206.400 77.600 " stroke="none" fill="#d80424" fill-rule="evenodd"></path><path id="path2" d="M120.889 86.988 C 116.322 88.414,113.351 93.304,114.315 97.807 C 114.637 99.316,114.727 99.394,116.006 99.288 C 123.733 98.646,125.195 100.709,132.014 121.859 L 137.320 138.318 138.890 137.181 C 140.965 135.677,144.201 134.951,146.369 135.501 C 147.266 135.729,148.000 135.855,148.000 135.783 C 148.000 135.430,132.806 91.958,132.451 91.295 C 130.537 87.719,125.069 85.682,120.889 86.988 M272.873 87.138 C 270.830 87.865,268.371 89.797,267.537 91.330 C 267.193 91.963,252.000 135.430,252.000 135.783 C 252.000 135.855,252.734 135.729,253.631 135.501 C 255.813 134.947,258.995 135.671,261.061 137.191 L 262.637 138.350 264.494 132.675 C 265.516 129.554,267.989 121.940,269.990 115.755 C 274.659 101.329,276.034 99.567,282.744 99.413 L 285.374 99.352 285.698 97.793 C 287.155 90.779,279.803 84.670,272.873 87.138 M135.464 142.979 C 133.447 148.233,136.310 151.458,149.308 158.575 C 159.692 164.260,160.308 164.492,161.600 163.200 C 164.038 160.762,163.359 160.144,150.377 152.971 C 138.496 146.406,137.498 145.743,136.462 143.724 C 135.870 142.569,135.676 142.425,135.464 142.979 M263.501 143.758 C 262.580 145.689,261.476 146.422,249.623 152.971 C 236.641 160.144,235.962 160.762,238.400 163.200 C 239.692 164.492,240.308 164.260,250.692 158.575 C 263.123 151.768,264.814 150.135,264.794 144.954 C 264.785 142.613,264.272 142.140,263.501 143.758 " stroke="none" fill="#fcac94" fill-rule="evenodd"></path><path id="path3" d="M193.600 77.600 L 193.600 84.000 187.200 84.000 L 180.800 84.000 180.800 90.400 L 180.800 96.800 187.200 96.800 L 193.600 96.800 193.600 103.200 L 193.600 109.600 200.000 109.600 L 206.400 109.600 206.400 103.200 L 206.400 96.800 212.800 96.800 L 219.200 96.800 219.200 90.400 L 219.200 84.000 212.800 84.000 L 206.400 84.000 206.400 77.600 L 206.400 71.200 200.000 71.200 L 193.600 71.200 193.600 77.600 " stroke="none" fill="#f4f4f4" fill-rule="evenodd"></path><path id="path4" d="M112.732 100.547 C 108.846 102.598,107.062 106.954,108.162 111.699 C 110.788 123.021,122.604 165.629,123.531 167.117 C 124.164 168.134,129.299 173.012,136.115 179.071 C 152.235 193.402,151.532 192.358,151.891 202.500 L 152.113 208.800 171.257 208.800 L 190.400 208.800 190.400 190.084 C 190.400 160.215,190.551 160.476,164.499 145.255 C 156.083 140.338,148.523 136.158,147.699 135.967 C 144.160 135.145,140.352 135.981,138.130 138.066 L 137.261 138.882 132.805 125.141 C 130.355 117.584,127.976 110.230,127.520 108.800 C 124.998 100.892,118.718 97.387,112.732 100.547 M279.997 99.952 C 276.001 101.253,274.220 103.349,272.478 108.800 C 272.022 110.230,269.653 117.550,267.215 125.067 L 262.781 138.733 260.786 137.390 C 255.616 133.911,254.122 134.375,235.565 145.220 C 217.818 155.592,215.125 157.717,212.269 163.600 C 209.444 169.418,209.518 168.638,209.566 192.100 L 209.600 208.800 228.743 208.800 L 247.887 208.800 248.109 202.500 C 248.468 192.358,247.765 193.402,263.885 179.071 C 270.701 173.012,275.836 168.134,276.469 167.117 C 277.396 165.629,289.212 123.021,291.838 111.699 C 293.612 104.050,287.138 97.628,279.997 99.952 M136.381 143.153 C 137.219 145.178,138.773 146.234,150.391 152.682 C 162.300 159.291,163.193 159.978,162.656 162.120 C 161.821 165.445,160.766 165.163,148.200 158.253 C 137.859 152.568,136.430 151.403,135.383 147.801 C 134.344 144.226,135.190 140.280,136.381 143.153 M265.015 143.761 C 265.854 149.356,263.713 151.703,251.800 158.253 C 239.234 165.163,238.179 165.445,237.344 162.120 C 236.807 159.978,237.700 159.291,249.609 152.682 C 261.227 146.234,262.781 145.178,263.619 143.153 C 264.290 141.534,264.708 141.716,265.015 143.761 " stroke="none" fill="#fcbcac" fill-rule="evenodd"></path><path id="path5" d="M116.500 99.476 C 116.885 99.576,117.515 99.576,117.900 99.476 C 118.285 99.375,117.970 99.293,117.200 99.293 C 116.430 99.293,116.115 99.375,116.500 99.476 M282.100 99.476 C 282.485 99.576,283.115 99.576,283.500 99.476 C 283.885 99.375,283.570 99.293,282.800 99.293 C 282.030 99.293,281.715 99.375,282.100 99.476 M143.905 135.483 C 144.402 135.579,145.122 135.575,145.505 135.475 C 145.887 135.375,145.480 135.296,144.600 135.301 C 143.720 135.305,143.407 135.387,143.905 135.483 M254.705 135.483 C 255.202 135.579,255.922 135.575,256.305 135.475 C 256.687 135.375,256.280 135.296,255.400 135.301 C 254.520 135.305,254.207 135.387,254.705 135.483 " stroke="none" fill="#fcac9c" fill-rule="evenodd"></path><path id="path6" d="M134.901 145.000 C 134.905 145.880,134.987 146.193,135.083 145.695 C 135.179 145.198,135.175 144.478,135.075 144.095 C 134.975 143.713,134.896 144.120,134.901 145.000 M264.901 145.000 C 264.905 145.880,264.987 146.193,265.083 145.695 C 265.179 145.198,265.175 144.478,265.075 144.095 C 264.975 143.713,264.896 144.120,264.901 145.000 " stroke="none" fill="#fcb6a0" fill-rule="evenodd"></path></g></svg>