<svg width="26" height="26" viewBox="0 0 26 26" fill="none" xmlns="http://www.w3.org/2000/svg">
<path d="M24.7987 0.997886C24.2069 0.389377 23.2577 0.389377 22.6658 0.997886L13.1067 10.8259L3.54764 0.997886C2.95579 0.389377 2.00658 0.389377 1.41472 0.997886C0.822861 1.6064 0.822861 2.58231 1.41472 3.19082L10.9738 13.0188L1.41472 22.8468C0.822861 23.4553 0.822861 24.4312 1.41472 25.0397C1.70507 25.3383 2.09592 25.499 2.4756 25.499C2.85528 25.499 3.24613 25.3497 3.53648 25.0397L13.0956 15.2118L22.6546 25.0397C22.945 25.3383 23.3358 25.499 23.7155 25.499C24.1064 25.499 24.486 25.3497 24.7764 25.0397C25.3682 24.4312 25.3682 23.4553 24.7764 22.8468L15.2396 13.0188L24.7987 3.19082C25.3906 2.58231 25.3906 1.6064 24.7987 0.997886Z" fill="#232323"/>
</svg>
