<svg width="39" height="29" viewBox="0 0 39 29" fill="none" xmlns="http://www.w3.org/2000/svg">
<path d="M9.03916 0.423535C11.4892 0.423535 13.5142 1.19853 15.1142 2.74853C16.7142 4.29853 17.5142 6.32353 17.5142 8.82353C17.5142 9.97354 17.3642 11.1235 17.0642 12.2735C16.7642 13.4235 16.0892 15.1485 15.0392 17.4485L10.3142 28.3985H1.38916L4.91416 16.1735C3.51416 15.5235 2.41416 14.5735 1.61416 13.3235C0.86416 12.0235 0.48916 10.5235 0.48916 8.82353C0.48916 6.32353 1.28916 4.29853 2.88916 2.74853C4.48916 1.19853 6.53916 0.423535 9.03916 0.423535ZM30.2794 0.423535C32.7294 0.423535 34.7544 1.19853 36.3544 2.74853C37.9544 4.29853 38.7544 6.32353 38.7544 8.82353C38.7544 9.97354 38.6044 11.1235 38.3044 12.2735C38.0044 13.4235 37.3294 15.1485 36.2794 17.4485L31.5544 28.3985H22.6294L26.1544 16.1735C24.7544 15.5235 23.6544 14.5735 22.8544 13.3235C22.1044 12.0235 21.7294 10.5235 21.7294 8.82353C21.7294 6.32353 22.5294 4.29853 24.1294 2.74853C25.7294 1.19853 27.7794 0.423535 30.2794 0.423535Z" fill="#232323"/>
</svg>
