<svg width="21" height="21" viewBox="0 0 21 21" fill="none" xmlns="http://www.w3.org/2000/svg">
<g clip-path="url(#clip0)">
<path d="M6.08552 4.8376C5.79708 4.54893 5.32911 4.54893 5.04068 4.8376C3.96974 5.90853 3.44337 7.40041 3.59634 8.93096C3.63451 9.31224 3.95572 9.59646 4.33083 9.59646C4.35548 9.59646 4.38033 9.59521 4.40497 9.59275C4.81115 9.55213 5.10744 9.18978 5.06681 8.78389C4.95794 7.69619 5.32939 6.63857 6.08552 5.8824C6.37419 5.594 6.37419 5.126 6.08552 4.8376Z" fill="#006DF0"/>
<path d="M9.01176 0.286133C4.35336 0.286133 0.563477 4.07602 0.563477 8.73442C0.563477 13.3928 4.35336 17.1827 9.01176 17.1827C13.6702 17.1827 17.46 13.3928 17.46 8.73442C17.46 4.07602 13.6701 0.286133 9.01176 0.286133ZM9.01176 15.7048C5.16816 15.7048 2.04133 12.578 2.04133 8.73442C2.04133 4.89082 5.16816 1.76398 9.01176 1.76398C12.8551 1.76398 15.9822 4.89082 15.9822 8.73442C15.9822 12.578 12.8554 15.7048 9.01176 15.7048Z" fill="#006DF0"/>
<path d="M20.3466 19.0249L14.9772 13.6555C14.6885 13.3668 14.221 13.3668 13.9323 13.6555C13.6437 13.9439 13.6437 14.4119 13.9323 14.7003L19.3018 20.0698C19.4461 20.2141 19.635 20.2863 19.8242 20.2863C20.0134 20.2863 20.2023 20.2141 20.3466 20.0698C20.6353 19.7813 20.6353 19.3134 20.3466 19.0249Z" fill="#006DF0"/>
</g>
<defs>
<clipPath id="clip0">
<rect width="20" height="20" fill="white" transform="translate(0.563477 0.286133)"/>
</clipPath>
</defs>
</svg>
